<svg xmlns="http://www.w3.org/2000/svg" width="135" height="40">
  <path fill="#A6A6A6" d="M130.2 40H4.73C2.13 40 0 37.87 0 35.27V4.73C0 2.13 2.12 0 4.73 0H130.2c2.6 0 4.8 2.12 4.8 4.73v30.54c0 2.6-2.2 4.73-4.8 4.73z"/>
  <path d="M134.03 35.27c0 2.1-1.7 3.83-3.83 3.83H4.73C2.6 39.1.9 37.38.9 35.27V4.72C.9 2.62 2.6.9 4.72.9H130.2c2.12 0 3.83 1.7 3.83 3.83v30.54z"/>
  <path fill="#FFF" d="M30.13 19.78c-.03-3.22 2.64-4.8 2.76-4.86-1.6-2.2-3.9-2.5-4.7-2.53-2-.3-3.9 1.1-4.9 1.1-1.1 0-2.6-1.2-4.3-1.1-2.2 0-4.2 1.2-5.3 3.2-2.3 3.9-.6 9.7 1.6 12.8 1.1 1.5 2.3 3.3 4 3.2 1.6-.1 2.2-1.1 4.2-1.1 1.9 0 2.5 1 4.2 1 1.7-.1 2.8-1.6 3.9-3.2 1.2-1.8 1.8-3.5 1.8-3.6-.1-.1-3.4-1.3-3.4-5.2zm-3.2-9.48c.87-1.1 1.47-2.57 1.3-4.08-1.26.05-2.84.87-3.75 1.94-.8.94-1.53 2.5-1.34 3.94 1.42.1 2.88-.72 3.8-1.8zm26.72 21.2h-2.28l-1.24-3.9H45.8l-1.18 3.9h-2.2l4.27-13.3h2.6l4.3 13.3zm-3.9-5.55l-1.12-3.47c-.12-.35-.34-1.2-.67-2.5h-.04c-.13.56-.34 1.4-.63 2.5l-1.2 3.48h3.6zm14.9.65c0 1.62-.43 2.9-1.3 3.86-.8.84-1.78 1.26-2.95 1.26-1.27 0-2.17-.45-2.73-1.36h-.04v5.05H55.5V25.1c0-1.03-.03-2.08-.08-3.16h1.88l.12 1.53h.04c.7-1.15 1.8-1.72 3.23-1.72 1.1 0 2 .46 2.8 1.35.7.9 1.1 2.08 1.1 3.54zm-2.16.07c0-.94-.3-1.7-.7-2.3-.5-.65-1.1-.96-1.9-.96-.6 0-1 .2-1.5.6-.5.4-.7.8-.9 1.4-.1.3-.1.5-.1.7v1.6c0 .7.2 1.3.6 1.8s1 .7 1.7.7c.8 0 1.4-.3 1.9-.9.4-.6.6-1.4.6-2.4zm13.2-.07c0 1.62-.5 2.9-1.4 3.86-.8.84-1.8 1.26-3 1.26-1.3 0-2.2-.45-2.7-1.36h-.1v5.05h-2.1V25.1c0-1.03-.1-2.08-.1-3.16h1.8l.1 1.53c.7-1.15 1.7-1.72 3.2-1.72 1.1 0 2.1.46 2.8 1.35.8.9 1.2 2.08 1.2 3.54zm-2.2.07c0-.94-.2-1.7-.7-2.3-.5-.65-1.1-.96-1.9-.96-.6 0-1 .2-1.5.6-.4.4-.7.8-.9 1.4-.1.3-.1.5-.1.7v1.6c0 .7.2 1.3.6 1.8s1 .7 1.7.7c.8 0 1.4-.3 1.8-.9.4-.6.6-1.4.6-2.4zm14.5 1.1c0 1.13-.4 2.05-1.2 2.77-.9.77-2.1 1.16-3.7 1.16-1.5 0-2.6-.28-3.5-.83l.5-1.78c.9.5 1.9.8 3.1.8.8 0 1.4-.2 1.9-.6.4-.4.6-.9.6-1.5s-.2-1-.6-1.4c-.4-.4-1-.7-1.8-1.1-2.4-.9-3.5-2.1-3.5-3.8 0-1.1.4-2 1.2-2.7.8-.7 1.9-1.1 3.3-1.1 1.2 0 2.2.2 3 .6l-.3 2c-.8-.4-1.6-.6-2.6-.6-.8 0-1.4.1-1.8.5-.4.3-.6.7-.6 1.2s.2 1 .6 1.3c.3.3 1 .7 1.9 1 1.1.4 2 1 2.5 1.6.5.6.8 1.3.8 2.3zm7-4.27h-2.3v4.67c0 1.18.4 1.77 1.2 1.77.4 0 .7-.03.9-.1v1.62c-.5.16-1 .24-1.7.24-.9 0-1.5-.26-2-.77-.5-.5-.7-1.38-.7-2.6V23.5H89v-1.6h1.4v-1.74l2.1-.63v2.4H95v1.6zm10.6 3.13c0 1.47-.5 2.68-1.3 3.63-.9.97-2.1 1.46-3.6 1.46-1.4 0-2.5-.47-3.4-1.4S96 28.22 96 26.8c0-1.5.43-2.8 1.3-3.7.86-1 2-1.4 3.5-1.4 1.4 0 2.52.4 3.4 1.4.8.9 1.2 2.1 1.2 3.5zm-2.3.07c0-.9-.2-1.65-.6-2.28-.5-.77-1.1-1.15-1.9-1.15-.9 0-1.5.38-2 1.15-.4.63-.6 1.4-.6 2.32 0 .88.1 1.64.5 2.27.4.8 1.1 1.2 1.9 1.2.8 0 1.5-.4 1.9-1.1.4-.6.6-1.4.6-2.3zm9.1-2.92c-.2-.04-.5-.06-.7-.06-.8 0-1.4.3-1.8.85-.4.5-.5 1.14-.5 1.9v5.03h-2.2v-6.57c0-1.1 0-2.1-.1-3.02h1.9v1.9c.2-.6.6-1.1 1.03-1.5.5-.3 1-.5 1.5-.5.15 0 .33 0 .5.1V24zm9.5 2.47c0 .38-.1.7-.1.97h-6.4c0 .95.3 1.67.9 2.17.5.4 1.2.6 2.1.6.9 0 1.8-.2 2.6-.5l.3 1.5c-.9.3-2 .5-3.2.5-1.5 0-2.7-.5-3.6-1.3-.8-.9-1.3-2.1-1.3-3.6s.4-2.7 1.1-3.6c.83-1.1 2-1.6 3.4-1.6s2.4.5 3.1 1.5c.6.8.87 1.8.87 3zm-2-.55c0-.63-.1-1.18-.4-1.64-.4-.6-1-.9-1.7-.9s-1.3.3-1.7.88c-.4.46-.6 1-.7 1.66h4.5zM49 10c0 1.2-.36 2.07-1.07 2.67-.7.55-1.6.82-2.8.82-.6 0-1.1-.1-1.55-.1V7c.56-.1 1.16-.13 1.8-.13 1.16 0 2 .25 2.6.74.65.6.98 1.4.98 2.4zm-1.1.04c0-.76-.2-1.35-.6-1.76-.43-.4-1-.6-1.8-.6-.32 0-.6 0-.84.06v4.9l.7.02c.8 0 1.43-.23 1.87-.67s.62-1.1.62-2zm6.94 1c0 .72-.2 1.32-.6 1.78-.4.48-1 .72-1.7.72s-1.25-.23-1.66-.7c-.4-.45-.6-1.03-.6-1.72 0-.73.2-1.33.66-1.8s1-.7 1.7-.7 1.24.23 1.66.7c.4.44.6 1 .6 1.72zm-1.05.03c0-.43-.1-.8-.3-1.12-.2-.37-.6-.56-1-.56s-.8.1-1 .5c-.2.3-.3.7-.3 1.1 0 .4.1.8.2 1.1.2.4.5.5.9.5s.7-.2.9-.6c.2-.3.3-.7.3-1.2zm8.9-2.35l-1.5 4.7h-1l-.6-2.03c-.2-.6-.3-1.1-.4-1.6-.1.5-.2 1-.4 1.5l-.6 2h-1l-1.4-4.7H57l.55 2.2.32 1.5c.1-.4.22-.9.4-1.5l.67-2.3h.86l.64 2.2c.15.5.28 1 .38 1.5h.02c.08-.5.18-1 .32-1.6l.58-2.2h1.02zm5.4 4.7h-1v-2.7c0-.82-.4-1.23-1-1.23-.3 0-.6.1-.8.3-.2.2-.3.5-.3.8v2.8h-1V10c0-.42 0-.87-.1-1.35h1v.73h.1c.1-.2.3-.4.5-.55.3-.2.6-.28 1-.28.5 0 .8.13 1.1.42.4.33.6.85.6 1.54v2.8zm2.9 0h-1V6.57h1v6.87zm6.2-2.38c0 .72-.2 1.32-.6 1.78-.5.48-1 .72-1.8.72-.7 0-1.2-.23-1.6-.7-.4-.45-.6-1.03-.6-1.72 0-.73.2-1.33.6-1.8s1-.7 1.7-.7 1.2.23 1.7.7c.4.44.6 1 .6 1.72zm-1.1.03c0-.43-.1-.8-.3-1.12-.2-.37-.6-.56-1-.56s-.8.1-1 .5c-.2.3-.3.7-.3 1.1 0 .4.1.8.3 1.1.2.4.5.5.9.5s.7-.2 1-.6c.2-.3.3-.7.3-1.2zm6.1 2.36h-1l-.1-.54c-.3.4-.8.6-1.4.6-.5 0-.8-.2-1.1-.5-.3-.3-.4-.6-.4-1 0-.6.2-1 .7-1.3.5-.3 1.1-.5 2-.5v-.1c0-.7-.3-1-1-1-.5 0-.9.1-1.2.3l-.2-.7c.4-.3.9-.4 1.6-.4 1.2 0 1.8.6 1.8 1.9v2.9zm-1.1-1.62v-.7c-1.2 0-1.7.3-1.7 1 0 .3.1.5.2.6.1.1.3.2.5.2s.4 0 .6-.2c.2-.1.3-.3.4-.5V12zm7 1.7h-.9l-.1-.7c-.3.6-.8.9-1.5.9-.6 0-1-.2-1.4-.6s-.5-1.1-.5-1.8c0-.8.2-1.4.6-1.9.4-.4.8-.6 1.4-.6.6 0 1 .2 1.3.7V6.6h1v6.87zm-1.1-2v-1.1c-.1-.2-.2-.4-.4-.6-.2-.2-.5-.2-.7-.2-.4 0-.7.2-1 .5s-.4.7-.4 1.2.1.8.3 1.1c.2.3.5.5.9.5.3 0 .6-.1.8-.4.2-.2.3-.5.3-.8zm10.1-.4c0 .7-.2 1.3-.6 1.8-.5.5-1 .7-1.8.7-.7 0-1.3-.2-1.7-.7-.4-.4-.7-1-.7-1.7s.2-1.3.6-1.8 1-.7 1.7-.7 1.3.3 1.7.7c.4.5.6 1 .6 1.7zm-1.1 0c0-.4-.1-.8-.3-1.1-.2-.3-.6-.5-1-.5s-.8.2-1 .6c-.2.3-.3.7-.3 1.2 0 .4.1.8.3 1.1.2.4.5.6.9.6s.7-.2.9-.6c.2-.3.3-.7.3-1.1zm6.7 2.4h-1.1v-2.7c0-.8-.3-1.2-1-1.2-.3 0-.6.1-.8.4s-.3.5-.3.8v2.8h-1v-3.4c0-.4 0-.8-.1-1.3h.9v.8h.03c.1-.2.3-.4.52-.5.2-.2.6-.3.9-.3.4 0 .8.2 1.1.5.33.3.5.8.5 1.5v2.9zm7.1-3.9h-1.2v2.3c0 .6.2.9.6.9h.4v.8c-.3.1-.5.1-.9.1s-.7-.1-1-.3-.4-.7-.4-1.3V9.5h-.7v-.78h.7v-.87l1-.3v1.17h1.1v.78zm5.5 4h-1.1v-2.7c0-.8-.3-1.2-1-1.2-.5 0-.9.2-1 .7-.1.1-.1.3-.1.4v2.8h-1v-7h1v2.8c.3-.5.8-.7 1.4-.7.4 0 .8.2 1.1.5.3.4.5.9.5 1.6v2.8zM121 11c0 .2 0 .4-.07.5h-3c.02.5.17.8.46 1.1.2.2.6.3 1 .3.5 0 .9 0 1.3-.2l.1.7c-.5.2-1 .3-1.6.3-.8 0-1.3-.2-1.7-.6-.4-.5-.6-1-.6-1.8 0-.7.2-1.3.6-1.74.4-.5.9-.8 1.6-.8.6 0 1.2.3 1.5.8.3.4.4.9.4 1.4zm-1-.3c0-.3-.1-.6-.2-.8-.2-.3-.5-.4-.87-.4s-.6.1-.86.4c-.15.2-.25.5-.3.8h2.2z"/>
</svg>
