<svg xmlns="http://www.w3.org/2000/svg" viewBox="0 0 420.95 121.79">
  <title>Stockpile</title>
  <path fill="#fffcf9" d="M15.52 91.88a34.08 34.08 0 0 1-11.25-7.63l6.4-7.47a29.75 29.75 0 0 0 8.75 6.08 23.67 23.67 0 0 0 9.92 2.24q6.18 0 9.7-2.72a9.54 9.54 0 0 0 2.2-12.26 10.7 10.7 0 0 0-3.52-3.25 53.18 53.18 0 0 0-6.35-3l-9.7-4.27q-14.2-5.85-14.2-18.22a17.2 17.2 0 0 1 2.93-9.8 20 20 0 0 1 8.16-6.9 26.8 26.8 0 0 1 11.73-2.5 29.57 29.57 0 0 1 11.6 2.35 28.7 28.7 0 0 1 9.5 6.4l-5.7 6.93a22.93 22.93 0 0 0-15.48-6.2q-5.45 0-8.65 2.46a7.9 7.9 0 0 0-3.2 6.6 7.24 7.24 0 0 0 1.54 4.7 12.06 12.06 0 0 0 3.73 3.1q2.2 1.17 6 2.77l9.7 4.1a26.13 26.13 0 0 1 10.6 7.2q3.68 4.43 3.68 11.6a18.63 18.63 0 0 1-3 10.3 20.7 20.7 0 0 1-8.52 7.32 29.24 29.24 0 0 1-13 2.72 34.66 34.66 0 0 1-13.63-2.73zm49.32-15.52V49.8h-7.57v-8.1l8.1-.53 1.3-14.4h9v14.4h13.6v8.64H75.62v26.6q0 4.8 1.8 7.2T83.3 86a15.5 15.5 0 0 0 5.64-1.28l1.92 8a32.9 32.9 0 0 1-10.23 1.88q-15.8 0-15.8-18.24zm42.88 14.94a23.93 23.93 0 0 1-9-9.5 29.93 29.93 0 0 1-3.36-14.5 30.18 30.18 0 0 1 3.36-14.6 24.08 24.08 0 0 1 9-9.5 24.2 24.2 0 0 1 24.42 0 24.1 24.1 0 0 1 9 9.5 30.18 30.18 0 0 1 3.36 14.6 29.93 29.93 0 0 1-3.5 14.5 23.93 23.93 0 0 1-9 9.5 24 24 0 0 1-24.32 0zm22-10.62q3.62-5.07 3.63-13.38t-3.68-13.44a11.86 11.86 0 0 0-19.52 0q-3.7 5.14-3.7 13.44t3.62 13.38a12 12 0 0 0 19.62 0zm36 10.67a22.85 22.85 0 0 1-8.9-9.44 31 31 0 0 1-3.25-14.6 29.06 29.06 0 0 1 3.52-14.6 24.6 24.6 0 0 1 9.3-9.5 25.62 25.62 0 0 1 12.8-3.3 22.34 22.34 0 0 1 15.25 6l-5.33 7a20.9 20.9 0 0 0-4.6-3.1 11 11 0 0 0-4.8-1 13.5 13.5 0 0 0-10.93 5.1q-4.2 5.17-4.2 13.47t4.1 13.4a13.14 13.14 0 0 0 10.72 5.06q5.85 0 11.4-4.8l4.5 7.15A24.4 24.4 0 0 1 187.4 93a25.6 25.6 0 0 1-9 1.64 25 25 0 0 1-12.7-3.24zm40.43-73.65h10.56v49h.3l20.6-25.5h11.9l-17.7 21.13 19.73 31h-11.7l-14.2-23.7-8.84 10.25v13.44h-10.6zm54.4 23.47h8.85l.85 5.76h.32q8.42-7 16.1-7 9.8 0 15.2 7.15t5.4 19.4a33.86 33.86 0 0 1-3.1 15 24 24 0 0 1-8.17 9.7 19.6 19.6 0 0 1-11.1 3.42q-6.9 0-13.9-5.87l.32 8.85v17h-10.77zm31.9 39.4q3.72-5.05 3.72-14 0-17.7-12.37-17.7-5.76 0-12.48 6.4v25.6q5.65 4.8 11.4 4.8a11.53 11.53 0 0 0 9.7-5.1zM321 29.54a6.25 6.25 0 0 1-1.87-4.7 6.12 6.12 0 0 1 1.87-4.58 7.12 7.12 0 0 1 9.5 0 6.13 6.13 0 0 1 1.86 4.6 6.25 6.25 0 0 1-1.87 4.68 7.12 7.12 0 0 1-9.5 0zm-.7 11.63H331v52.15h-10.73zM350 91.2q-2.56-3.42-2.56-10V17.7h10.77v64.1a4.85 4.85 0 0 0 .8 3 2.23 2.23 0 0 0 1.8 1 8.8 8.8 0 0 0 1.97-.2l1.4 8.1a16.1 16.1 0 0 1-5.88 1q-5.6-.1-8.2-3.5zm66.57-21.13h-34.44q.75 7.9 5.4 12a16.38 16.38 0 0 0 11.24 4.1 23 23 0 0 0 12.48-3.94l3.75 6.82a31.2 31.2 0 0 1-17.6 5.55 25.46 25.46 0 0 1-12.9-3.3 23.7 23.7 0 0 1-9.12-9.5A29.93 29.93 0 0 1 372 67.3a30 30 0 0 1 3.36-14.45 24.78 24.78 0 0 1 8.8-9.6 21.74 21.74 0 0 1 11.63-3.36q10.1 0 15.6 6.6t5.54 18a33.9 33.9 0 0 1-.45 5.5zm-9-7.47q0-6.82-3-10.56T396 48.3a12.4 12.4 0 0 0-8.75 3.64q-3.84 3.63-4.9 10.67z"/>
</svg>
